<?xml version="1.0" encoding="UTF-8"?>
<svg width="28px" height="28px" viewBox="0 0 28 28" version="1.1" xmlns="http://www.w3.org/2000/svg" xmlns:xlink="http://www.w3.org/1999/xlink">
    <title>图形logo@2x</title>
    <defs>
        <linearGradient x1="50%" y1="100%" x2="50%" y2="-2.48949813e-15%" id="linearGradient-1">
            <stop stop-color="#18EED8" offset="0%"></stop>
            <stop stop-color="#A6F616" offset="100%"></stop>
        </linearGradient>
    </defs>
    <g id="适配" stroke="none" stroke-width="1" fill="none" fill-rule="evenodd">
        <g id="Markets-历史记录(2560*1440)" transform="translate(-24.000000, -10.000000)" fill-rule="nonzero">
            <g id="logo标识" transform="translate(24.000000, 10.000000)">
                <g id="编组" transform="translate(0.875000, 0.000000)">
                    <g id="编组-2">
                        <path d="M8.15289876,1.36975695 L4.97204628,3.25797435 C1.89536874,5.08416631 0,8.45929984 0,12.1119097 L0,12.1119097 L0,15.8881185 C0,19.5407284 1.89536874,22.9158619 4.97204628,24.7421669 L4.97204628,24.7421669 L8.15289876,26.6302713 C11.2296862,28.4565762 15.0204236,28.4565762 18.0971013,26.6302713 L18.0971013,26.6302713 L21.2779537,24.7421669 C24.3546312,22.9158619 26.25,19.5407284 26.25,15.8881185 L26.25,15.8881185 L26.25,12.1119097 C26.25,8.45929984 24.3546312,5.08416631 21.2779537,3.25797435 L21.2779537,3.25797435 L18.0971013,1.36975695 C16.5586526,0.456547984 14.8419636,0 13.124945,0 L13.124945,0 C11.4082561,0 9.69134741,0.456547984 8.15289876,1.36975695 L8.15289876,1.36975695 Z" id="path-2-path" fill="#101314"></path>
                        <path d="M21.0136812,13.4156417 C21.0136812,10.5406661 19.8070979,7.98542088 17.9360146,6.35603828 C17.6932694,6.46585383 17.4695351,6.62797864 17.2828333,6.84128292 L14.0723107,10.508806 C13.7257202,10.9047973 13.1266043,10.9199364 12.7614426,10.5420218 L9.04773743,6.69825155 C8.86356314,6.50754306 8.64840011,6.36304298 8.41752292,6.26520319 C6.48687974,7.88950174 5.23634077,10.4874529 5.23634077,13.4156417 C5.23634077,16.5981462 6.71457015,19.3892914 8.93663946,20.9654609 L10.0408061,19.8301354 L7.53643139,17.2553448 C7.28830161,17.0001253 7.28830161,16.5826681 7.53643139,16.3275615 L9.71817133,14.0844772 C9.96630117,13.8292577 10.3724516,13.8292577 10.6205814,14.0844772 L13.125066,16.6592677 L15.6294405,14.0844772 C15.8776802,13.8292577 16.2837208,13.8292577 16.5318506,14.0844772 L18.7135905,16.3275615 C18.9618303,16.5826681 18.9618303,17.0001253 18.7135905,17.2553448 L16.2092159,19.8301354 L17.3133825,20.9654609 C19.5354518,19.3892914 21.0136812,16.5981462 21.0136812,13.4156417" id="Fill-1" fill="#324B06"></path>
                    </g>
                    <path d="M8.15289876,1.36975695 L4.97204628,3.25797435 C1.89536874,5.08416631 0,8.45929984 0,12.1119097 L0,12.1119097 L0,15.8881185 C0,19.5407284 1.89536874,22.9158619 4.97204628,24.7421669 L4.97204628,24.7421669 L8.15289876,26.6302713 C11.2296862,28.4565762 15.0204236,28.4565762 18.0971013,26.6302713 L18.0971013,26.6302713 L21.2779537,24.7421669 C24.3546312,22.9158619 26.25,19.5407284 26.25,15.8881185 L26.25,15.8881185 L26.25,12.1119097 C26.25,8.45929984 24.3546312,5.08416631 21.2779537,3.25797435 L21.2779537,3.25797435 L18.0971013,1.36975695 C16.5586526,0.456547984 14.8419636,0 13.124945,0 L13.124945,0 C11.4082561,0 9.69134741,0.456547984 8.15289876,1.36975695 L8.15289876,1.36975695 Z M4.35897449,19.7977556 C3.74623237,19.4505712 3.36579599,18.7881756 3.36579599,18.0691775 L3.36579599,18.0691775 L3.36579599,9.47724032 C3.36579599,8.76445602 3.7398588,8.10691845 4.34413944,7.75736154 L4.34413944,7.75736154 L6.74488858,6.36896307 C7.49718997,5.93388108 8.43948977,6.06866499 9.04783632,6.69829675 L9.04783632,6.69829675 L12.7615415,10.541954 C13.1265933,10.9198686 13.7257092,10.9047295 14.0722997,10.5088512 L14.0722997,10.5088512 L17.2827125,6.84132812 C17.8973227,6.13927684 18.9094021,5.98336587 19.6970878,6.46928838 L19.6970878,6.46928838 L21.9523436,7.86051133 C22.5303608,8.21707294 22.884204,8.85947133 22.884204,9.55248428 L22.884204,9.55248428 L22.884204,17.9663666 C22.884204,18.6803936 22.5088225,19.339061 21.9026738,19.688053 L21.9026738,19.688053 L18.1643534,21.8404152 L16.2092049,19.8301805 L18.7135796,17.2555029 C18.9617093,17.0001705 18.9617093,16.5827132 18.7135796,16.3273807 L18.7135796,16.3273807 L16.5318396,14.0844094 C16.2838197,13.82919 15.8776692,13.82919 15.6295395,14.0844094 L15.6295395,14.0844094 L13.124945,16.659313 L10.6205704,14.0844094 C10.3725505,13.82919 9.96618024,13.82919 9.71816043,14.0844094 L9.71816043,14.0844094 L7.53642041,16.3273807 C7.28829062,16.5827132 7.28829062,17.0001705 7.53642041,17.2555029 L7.53642041,17.2555029 L10.040905,19.8301805 L8.04267991,21.884477 L4.35897449,19.7977556 Z" id="path-2" fill="url(#linearGradient-1)"></path>
                </g>
            </g>
        </g>
    </g>
</svg>