<?xml version="1.0" encoding="UTF-8"?>
<svg width="320px" height="320px" viewBox="0 0 320 320" version="1.1" xmlns="http://www.w3.org/2000/svg" xmlns:xlink="http://www.w3.org/1999/xlink">
    <title>Oval@2x</title>
    <defs>
        <path d="M16,0 L304,0 C312.836556,-1.623249e-15 320,7.163444 320,16 L320,320 L320,320 L0,320 L0,16 C-1.082166e-15,7.163444 7.163444,1.623249e-15 16,0 Z" id="path-1"></path>
        <linearGradient x1="50%" y1="0%" x2="50%" y2="100%" id="linearGradient-3">
            <stop stop-color="#2A2C32" stop-opacity="0" offset="0.0616327032%"></stop>
            <stop stop-color="#2A2C32" offset="99.9892442%"></stop>
        </linearGradient>
    </defs>
    <g id="Rewards" stroke="none" stroke-width="1" fill="none" fill-rule="evenodd">
        <g id="Rewards-未登录" transform="translate(-360.000000, -674.000000)">
            <g id="Oval" transform="translate(360.000000, 674.000000)">
                <mask id="mask-2" fill="white">
                    <use xlink:href="#path-1"></use>
                </mask>
                <use id="Mask" fill="#2A2C32" xlink:href="#path-1"></use>
                <g id="1" opacity="0.200000003" mask="url(#mask-2)" fill="#FFFFFF">
                    <g transform="translate(6.000000, 6.000000)" id="Oval">
                        <circle cx="4" cy="4" r="4"></circle>
                        <circle cx="16" cy="4" r="4"></circle>
                        <circle cx="28" cy="4" r="4"></circle>
                        <circle cx="40" cy="4" r="4"></circle>
                        <circle cx="52" cy="4" r="4"></circle>
                        <circle cx="64" cy="4" r="4"></circle>
                        <circle cx="76" cy="4" r="4"></circle>
                        <circle cx="88" cy="4" r="4"></circle>
                        <circle cx="100" cy="4" r="4"></circle>
                        <circle cx="112" cy="4" r="4"></circle>
                        <circle cx="124" cy="4" r="4"></circle>
                        <circle cx="136" cy="4" r="4"></circle>
                        <circle cx="148" cy="4" r="4"></circle>
                        <circle cx="160" cy="4" r="4"></circle>
                        <circle cx="172" cy="4" r="4"></circle>
                        <circle cx="184" cy="4" r="4"></circle>
                        <circle cx="196" cy="4" r="4"></circle>
                        <circle cx="208" cy="4" r="4"></circle>
                        <circle cx="220" cy="4" r="4"></circle>
                        <circle cx="232" cy="4" r="4"></circle>
                        <circle cx="244" cy="4" r="4"></circle>
                        <circle cx="256" cy="4" r="4"></circle>
                        <circle cx="268" cy="4" r="4"></circle>
                        <circle cx="280" cy="4" r="4"></circle>
                        <circle cx="292" cy="4" r="4"></circle>
                        <circle cx="304" cy="4" r="4"></circle>
                    </g>
                </g>
                <g id="1" opacity="0.200000003" mask="url(#mask-2)" fill="#FFFFFF">
                    <g transform="translate(6.000000, 22.000000)" id="Oval">
                        <circle cx="4" cy="4" r="4"></circle>
                        <circle cx="16" cy="4" r="4"></circle>
                        <circle cx="28" cy="4" r="4"></circle>
                        <circle cx="40" cy="4" r="4"></circle>
                        <circle cx="52" cy="4" r="4"></circle>
                        <circle cx="64" cy="4" r="4"></circle>
                        <circle cx="76" cy="4" r="4"></circle>
                        <circle cx="88" cy="4" r="4"></circle>
                        <circle cx="100" cy="4" r="4"></circle>
                        <circle cx="112" cy="4" r="4"></circle>
                        <circle cx="124" cy="4" r="4"></circle>
                        <circle cx="136" cy="4" r="4"></circle>
                        <circle cx="148" cy="4" r="4"></circle>
                        <circle cx="160" cy="4" r="4"></circle>
                        <circle cx="172" cy="4" r="4"></circle>
                        <circle cx="184" cy="4" r="4"></circle>
                        <circle cx="196" cy="4" r="4"></circle>
                        <circle cx="208" cy="4" r="4"></circle>
                        <circle cx="220" cy="4" r="4"></circle>
                        <circle cx="232" cy="4" r="4"></circle>
                        <circle cx="244" cy="4" r="4"></circle>
                        <circle cx="256" cy="4" r="4"></circle>
                        <circle cx="268" cy="4" r="4"></circle>
                        <circle cx="280" cy="4" r="4"></circle>
                        <circle cx="292" cy="4" r="4"></circle>
                        <circle cx="304" cy="4" r="4"></circle>
                    </g>
                </g>
                <g id="1" opacity="0.200000003" mask="url(#mask-2)" fill="#FFFFFF">
                    <g transform="translate(6.000000, 38.000000)" id="Oval">
                        <circle cx="4" cy="4" r="4"></circle>
                        <circle cx="16" cy="4" r="4"></circle>
                        <circle cx="28" cy="4" r="4"></circle>
                        <circle cx="40" cy="4" r="4"></circle>
                        <circle cx="52" cy="4" r="4"></circle>
                        <circle cx="64" cy="4" r="4"></circle>
                        <circle cx="76" cy="4" r="4"></circle>
                        <circle cx="88" cy="4" r="4"></circle>
                        <circle cx="100" cy="4" r="4"></circle>
                        <circle cx="112" cy="4" r="4"></circle>
                        <circle cx="124" cy="4" r="4"></circle>
                        <circle cx="136" cy="4" r="4"></circle>
                        <circle cx="148" cy="4" r="4"></circle>
                        <circle cx="160" cy="4" r="4"></circle>
                        <circle cx="172" cy="4" r="4"></circle>
                        <circle cx="184" cy="4" r="4"></circle>
                        <circle cx="196" cy="4" r="4"></circle>
                        <circle cx="208" cy="4" r="4"></circle>
                        <circle cx="220" cy="4" r="4"></circle>
                        <circle cx="232" cy="4" r="4"></circle>
                        <circle cx="244" cy="4" r="4"></circle>
                        <circle cx="256" cy="4" r="4"></circle>
                        <circle cx="268" cy="4" r="4"></circle>
                        <circle cx="280" cy="4" r="4"></circle>
                        <circle cx="292" cy="4" r="4"></circle>
                        <circle cx="304" cy="4" r="4"></circle>
                    </g>
                </g>
                <g id="2" opacity="0.200000003" mask="url(#mask-2)" fill="#FFFFFF">
                    <g transform="translate(6.500000, 54.000000)" id="Oval">
                        <circle cx="3.5" cy="3.5" r="3.5"></circle>
                        <circle cx="15.5" cy="3.5" r="3.5"></circle>
                        <circle cx="27.5" cy="3.5" r="3.5"></circle>
                        <circle cx="39.5" cy="3.5" r="3.5"></circle>
                        <circle cx="51.5" cy="3.5" r="3.5"></circle>
                        <circle cx="63.5" cy="3.5" r="3.5"></circle>
                        <circle cx="75.5" cy="3.5" r="3.5"></circle>
                        <circle cx="87.5" cy="3.5" r="3.5"></circle>
                        <circle cx="99.5" cy="3.5" r="3.5"></circle>
                        <circle cx="111.5" cy="3.5" r="3.5"></circle>
                        <circle cx="123.5" cy="3.5" r="3.5"></circle>
                        <circle cx="135.5" cy="3.5" r="3.5"></circle>
                        <circle cx="147.5" cy="3.5" r="3.5"></circle>
                        <circle cx="159.5" cy="3.5" r="3.5"></circle>
                        <circle cx="171.5" cy="3.5" r="3.5"></circle>
                        <circle cx="183.5" cy="3.5" r="3.5"></circle>
                        <circle cx="195.5" cy="3.5" r="3.5"></circle>
                        <circle cx="207.5" cy="3.5" r="3.5"></circle>
                        <circle cx="219.5" cy="3.5" r="3.5"></circle>
                        <circle cx="231.5" cy="3.5" r="3.5"></circle>
                        <circle cx="243.5" cy="3.5" r="3.5"></circle>
                        <circle cx="255.5" cy="3.5" r="3.5"></circle>
                        <circle cx="267.5" cy="3.5" r="3.5"></circle>
                        <circle cx="279.5" cy="3.5" r="3.5"></circle>
                        <circle cx="291.5" cy="3.5" r="3.5"></circle>
                        <circle cx="303.5" cy="3.5" r="3.5"></circle>
                    </g>
                </g>
                <g id="2" opacity="0.200000003" mask="url(#mask-2)" fill="#FFFFFF">
                    <g transform="translate(6.500000, 69.000000)" id="Oval">
                        <circle cx="3.5" cy="3.5" r="3.5"></circle>
                        <circle cx="15.5" cy="3.5" r="3.5"></circle>
                        <circle cx="27.5" cy="3.5" r="3.5"></circle>
                        <circle cx="39.5" cy="3.5" r="3.5"></circle>
                        <circle cx="51.5" cy="3.5" r="3.5"></circle>
                        <circle cx="63.5" cy="3.5" r="3.5"></circle>
                        <circle cx="75.5" cy="3.5" r="3.5"></circle>
                        <circle cx="87.5" cy="3.5" r="3.5"></circle>
                        <circle cx="99.5" cy="3.5" r="3.5"></circle>
                        <circle cx="111.5" cy="3.5" r="3.5"></circle>
                        <circle cx="123.5" cy="3.5" r="3.5"></circle>
                        <circle cx="135.5" cy="3.5" r="3.5"></circle>
                        <circle cx="147.5" cy="3.5" r="3.5"></circle>
                        <circle cx="159.5" cy="3.5" r="3.5"></circle>
                        <circle cx="171.5" cy="3.5" r="3.5"></circle>
                        <circle cx="183.5" cy="3.5" r="3.5"></circle>
                        <circle cx="195.5" cy="3.5" r="3.5"></circle>
                        <circle cx="207.5" cy="3.5" r="3.5"></circle>
                        <circle cx="219.5" cy="3.5" r="3.5"></circle>
                        <circle cx="231.5" cy="3.5" r="3.5"></circle>
                        <circle cx="243.5" cy="3.5" r="3.5"></circle>
                        <circle cx="255.5" cy="3.5" r="3.5"></circle>
                        <circle cx="267.5" cy="3.5" r="3.5"></circle>
                        <circle cx="279.5" cy="3.5" r="3.5"></circle>
                        <circle cx="291.5" cy="3.5" r="3.5"></circle>
                        <circle cx="303.5" cy="3.5" r="3.5"></circle>
                    </g>
                </g>
                <g id="2" opacity="0.200000003" mask="url(#mask-2)" fill="#FFFFFF">
                    <g transform="translate(6.500000, 84.000000)" id="Oval">
                        <circle cx="3.5" cy="3.5" r="3.5"></circle>
                        <circle cx="15.5" cy="3.5" r="3.5"></circle>
                        <circle cx="27.5" cy="3.5" r="3.5"></circle>
                        <circle cx="39.5" cy="3.5" r="3.5"></circle>
                        <circle cx="51.5" cy="3.5" r="3.5"></circle>
                        <circle cx="63.5" cy="3.5" r="3.5"></circle>
                        <circle cx="75.5" cy="3.5" r="3.5"></circle>
                        <circle cx="87.5" cy="3.5" r="3.5"></circle>
                        <circle cx="99.5" cy="3.5" r="3.5"></circle>
                        <circle cx="111.5" cy="3.5" r="3.5"></circle>
                        <circle cx="123.5" cy="3.5" r="3.5"></circle>
                        <circle cx="135.5" cy="3.5" r="3.5"></circle>
                        <circle cx="147.5" cy="3.5" r="3.5"></circle>
                        <circle cx="159.5" cy="3.5" r="3.5"></circle>
                        <circle cx="171.5" cy="3.5" r="3.5"></circle>
                        <circle cx="183.5" cy="3.5" r="3.5"></circle>
                        <circle cx="195.5" cy="3.5" r="3.5"></circle>
                        <circle cx="207.5" cy="3.5" r="3.5"></circle>
                        <circle cx="219.5" cy="3.5" r="3.5"></circle>
                        <circle cx="231.5" cy="3.5" r="3.5"></circle>
                        <circle cx="243.5" cy="3.5" r="3.5"></circle>
                        <circle cx="255.5" cy="3.5" r="3.5"></circle>
                        <circle cx="267.5" cy="3.5" r="3.5"></circle>
                        <circle cx="279.5" cy="3.5" r="3.5"></circle>
                        <circle cx="291.5" cy="3.5" r="3.5"></circle>
                        <circle cx="303.5" cy="3.5" r="3.5"></circle>
                    </g>
                </g>
                <g id="3" opacity="0.200000003" mask="url(#mask-2)" fill="#FFFFFF">
                    <g transform="translate(7.000000, 99.000000)" id="Oval">
                        <circle cx="3" cy="3" r="3"></circle>
                        <circle cx="15" cy="3" r="3"></circle>
                        <circle cx="27" cy="3" r="3"></circle>
                        <circle cx="39" cy="3" r="3"></circle>
                        <circle cx="51" cy="3" r="3"></circle>
                        <circle cx="63" cy="3" r="3"></circle>
                        <circle cx="75" cy="3" r="3"></circle>
                        <circle cx="87" cy="3" r="3"></circle>
                        <circle cx="99" cy="3" r="3"></circle>
                        <circle cx="111" cy="3" r="3"></circle>
                        <circle cx="123" cy="3" r="3"></circle>
                        <circle cx="135" cy="3" r="3"></circle>
                        <circle cx="147" cy="3" r="3"></circle>
                        <circle cx="159" cy="3" r="3"></circle>
                        <circle cx="171" cy="3" r="3"></circle>
                        <circle cx="183" cy="3" r="3"></circle>
                        <circle cx="195" cy="3" r="3"></circle>
                        <circle cx="207" cy="3" r="3"></circle>
                        <circle cx="219" cy="3" r="3"></circle>
                        <circle cx="231" cy="3" r="3"></circle>
                        <circle cx="243" cy="3" r="3"></circle>
                        <circle cx="255" cy="3" r="3"></circle>
                        <circle cx="267" cy="3" r="3"></circle>
                        <circle cx="279" cy="3" r="3"></circle>
                        <circle cx="291" cy="3" r="3"></circle>
                        <circle cx="303" cy="3" r="3"></circle>
                    </g>
                </g>
                <g id="3" opacity="0.200000003" mask="url(#mask-2)" fill="#FFFFFF">
                    <g transform="translate(7.000000, 113.000000)" id="Oval">
                        <circle cx="3" cy="3" r="3"></circle>
                        <circle cx="15" cy="3" r="3"></circle>
                        <circle cx="27" cy="3" r="3"></circle>
                        <circle cx="39" cy="3" r="3"></circle>
                        <circle cx="51" cy="3" r="3"></circle>
                        <circle cx="63" cy="3" r="3"></circle>
                        <circle cx="75" cy="3" r="3"></circle>
                        <circle cx="87" cy="3" r="3"></circle>
                        <circle cx="99" cy="3" r="3"></circle>
                        <circle cx="111" cy="3" r="3"></circle>
                        <circle cx="123" cy="3" r="3"></circle>
                        <circle cx="135" cy="3" r="3"></circle>
                        <circle cx="147" cy="3" r="3"></circle>
                        <circle cx="159" cy="3" r="3"></circle>
                        <circle cx="171" cy="3" r="3"></circle>
                        <circle cx="183" cy="3" r="3"></circle>
                        <circle cx="195" cy="3" r="3"></circle>
                        <circle cx="207" cy="3" r="3"></circle>
                        <circle cx="219" cy="3" r="3"></circle>
                        <circle cx="231" cy="3" r="3"></circle>
                        <circle cx="243" cy="3" r="3"></circle>
                        <circle cx="255" cy="3" r="3"></circle>
                        <circle cx="267" cy="3" r="3"></circle>
                        <circle cx="279" cy="3" r="3"></circle>
                        <circle cx="291" cy="3" r="3"></circle>
                        <circle cx="303" cy="3" r="3"></circle>
                    </g>
                </g>
                <g id="3" opacity="0.200000003" mask="url(#mask-2)" fill="#FFFFFF">
                    <g transform="translate(7.000000, 127.000000)" id="Oval">
                        <circle cx="3" cy="3" r="3"></circle>
                        <circle cx="15" cy="3" r="3"></circle>
                        <circle cx="27" cy="3" r="3"></circle>
                        <circle cx="39" cy="3" r="3"></circle>
                        <circle cx="51" cy="3" r="3"></circle>
                        <circle cx="63" cy="3" r="3"></circle>
                        <circle cx="75" cy="3" r="3"></circle>
                        <circle cx="87" cy="3" r="3"></circle>
                        <circle cx="99" cy="3" r="3"></circle>
                        <circle cx="111" cy="3" r="3"></circle>
                        <circle cx="123" cy="3" r="3"></circle>
                        <circle cx="135" cy="3" r="3"></circle>
                        <circle cx="147" cy="3" r="3"></circle>
                        <circle cx="159" cy="3" r="3"></circle>
                        <circle cx="171" cy="3" r="3"></circle>
                        <circle cx="183" cy="3" r="3"></circle>
                        <circle cx="195" cy="3" r="3"></circle>
                        <circle cx="207" cy="3" r="3"></circle>
                        <circle cx="219" cy="3" r="3"></circle>
                        <circle cx="231" cy="3" r="3"></circle>
                        <circle cx="243" cy="3" r="3"></circle>
                        <circle cx="255" cy="3" r="3"></circle>
                        <circle cx="267" cy="3" r="3"></circle>
                        <circle cx="279" cy="3" r="3"></circle>
                        <circle cx="291" cy="3" r="3"></circle>
                        <circle cx="303" cy="3" r="3"></circle>
                    </g>
                </g>
                <g id="4" opacity="0.200000003" mask="url(#mask-2)" fill="#FFFFFF">
                    <g transform="translate(7.500000, 141.000000)" id="Oval">
                        <circle cx="2.5" cy="2.5" r="2.5"></circle>
                        <circle cx="14.5" cy="2.5" r="2.5"></circle>
                        <circle cx="26.5" cy="2.5" r="2.5"></circle>
                        <circle cx="38.5" cy="2.5" r="2.5"></circle>
                        <circle cx="50.5" cy="2.5" r="2.5"></circle>
                        <circle cx="62.5" cy="2.5" r="2.5"></circle>
                        <circle cx="74.5" cy="2.5" r="2.5"></circle>
                        <circle cx="86.5" cy="2.5" r="2.5"></circle>
                        <circle cx="98.5" cy="2.5" r="2.5"></circle>
                        <circle cx="110.5" cy="2.5" r="2.5"></circle>
                        <circle cx="122.5" cy="2.5" r="2.5"></circle>
                        <circle cx="134.5" cy="2.5" r="2.5"></circle>
                        <circle cx="146.5" cy="2.5" r="2.5"></circle>
                        <circle cx="158.5" cy="2.5" r="2.5"></circle>
                        <circle cx="170.5" cy="2.5" r="2.5"></circle>
                        <circle cx="182.5" cy="2.5" r="2.5"></circle>
                        <circle cx="194.5" cy="2.5" r="2.5"></circle>
                        <circle cx="206.5" cy="2.5" r="2.5"></circle>
                        <circle cx="218.5" cy="2.5" r="2.5"></circle>
                        <circle cx="230.5" cy="2.5" r="2.5"></circle>
                        <circle cx="242.5" cy="2.5" r="2.5"></circle>
                        <circle cx="254.5" cy="2.5" r="2.5"></circle>
                        <circle cx="266.5" cy="2.5" r="2.5"></circle>
                        <circle cx="278.5" cy="2.5" r="2.5"></circle>
                        <circle cx="290.5" cy="2.5" r="2.5"></circle>
                        <circle cx="302.5" cy="2.5" r="2.5"></circle>
                    </g>
                </g>
                <g id="4" opacity="0.200000003" mask="url(#mask-2)" fill="#FFFFFF">
                    <g transform="translate(7.500000, 154.000000)" id="Oval">
                        <circle cx="2.5" cy="2.5" r="2.5"></circle>
                        <circle cx="14.5" cy="2.5" r="2.5"></circle>
                        <circle cx="26.5" cy="2.5" r="2.5"></circle>
                        <circle cx="38.5" cy="2.5" r="2.5"></circle>
                        <circle cx="50.5" cy="2.5" r="2.5"></circle>
                        <circle cx="62.5" cy="2.5" r="2.5"></circle>
                        <circle cx="74.5" cy="2.5" r="2.5"></circle>
                        <circle cx="86.5" cy="2.5" r="2.5"></circle>
                        <circle cx="98.5" cy="2.5" r="2.5"></circle>
                        <circle cx="110.5" cy="2.5" r="2.5"></circle>
                        <circle cx="122.5" cy="2.5" r="2.5"></circle>
                        <circle cx="134.5" cy="2.5" r="2.5"></circle>
                        <circle cx="146.5" cy="2.5" r="2.5"></circle>
                        <circle cx="158.5" cy="2.5" r="2.5"></circle>
                        <circle cx="170.5" cy="2.5" r="2.5"></circle>
                        <circle cx="182.5" cy="2.5" r="2.5"></circle>
                        <circle cx="194.5" cy="2.5" r="2.5"></circle>
                        <circle cx="206.5" cy="2.5" r="2.5"></circle>
                        <circle cx="218.5" cy="2.5" r="2.5"></circle>
                        <circle cx="230.5" cy="2.5" r="2.5"></circle>
                        <circle cx="242.5" cy="2.5" r="2.5"></circle>
                        <circle cx="254.5" cy="2.5" r="2.5"></circle>
                        <circle cx="266.5" cy="2.5" r="2.5"></circle>
                        <circle cx="278.5" cy="2.5" r="2.5"></circle>
                        <circle cx="290.5" cy="2.5" r="2.5"></circle>
                        <circle cx="302.5" cy="2.5" r="2.5"></circle>
                    </g>
                </g>
                <g id="4" opacity="0.200000003" mask="url(#mask-2)" fill="#FFFFFF">
                    <g transform="translate(7.500000, 167.000000)" id="Oval">
                        <circle cx="2.5" cy="2.5" r="2.5"></circle>
                        <circle cx="14.5" cy="2.5" r="2.5"></circle>
                        <circle cx="26.5" cy="2.5" r="2.5"></circle>
                        <circle cx="38.5" cy="2.5" r="2.5"></circle>
                        <circle cx="50.5" cy="2.5" r="2.5"></circle>
                        <circle cx="62.5" cy="2.5" r="2.5"></circle>
                        <circle cx="74.5" cy="2.5" r="2.5"></circle>
                        <circle cx="86.5" cy="2.5" r="2.5"></circle>
                        <circle cx="98.5" cy="2.5" r="2.5"></circle>
                        <circle cx="110.5" cy="2.5" r="2.5"></circle>
                        <circle cx="122.5" cy="2.5" r="2.5"></circle>
                        <circle cx="134.5" cy="2.5" r="2.5"></circle>
                        <circle cx="146.5" cy="2.5" r="2.5"></circle>
                        <circle cx="158.5" cy="2.5" r="2.5"></circle>
                        <circle cx="170.5" cy="2.5" r="2.5"></circle>
                        <circle cx="182.5" cy="2.5" r="2.5"></circle>
                        <circle cx="194.5" cy="2.5" r="2.5"></circle>
                        <circle cx="206.5" cy="2.5" r="2.5"></circle>
                        <circle cx="218.5" cy="2.5" r="2.5"></circle>
                        <circle cx="230.5" cy="2.5" r="2.5"></circle>
                        <circle cx="242.5" cy="2.5" r="2.5"></circle>
                        <circle cx="254.5" cy="2.5" r="2.5"></circle>
                        <circle cx="266.5" cy="2.5" r="2.5"></circle>
                        <circle cx="278.5" cy="2.5" r="2.5"></circle>
                        <circle cx="290.5" cy="2.5" r="2.5"></circle>
                        <circle cx="302.5" cy="2.5" r="2.5"></circle>
                    </g>
                </g>
                <g id="5" opacity="0.200000003" mask="url(#mask-2)" fill="#FFFFFF">
                    <g transform="translate(8.000000, 180.000000)" id="Oval">
                        <circle cx="2" cy="2" r="2"></circle>
                        <circle cx="14" cy="2" r="2"></circle>
                        <circle cx="26" cy="2" r="2"></circle>
                        <circle cx="38" cy="2" r="2"></circle>
                        <circle cx="50" cy="2" r="2"></circle>
                        <circle cx="62" cy="2" r="2"></circle>
                        <circle cx="74" cy="2" r="2"></circle>
                        <circle cx="86" cy="2" r="2"></circle>
                        <circle cx="98" cy="2" r="2"></circle>
                        <circle cx="110" cy="2" r="2"></circle>
                        <circle cx="122" cy="2" r="2"></circle>
                        <circle cx="134" cy="2" r="2"></circle>
                        <circle cx="146" cy="2" r="2"></circle>
                        <circle cx="158" cy="2" r="2"></circle>
                        <circle cx="170" cy="2" r="2"></circle>
                        <circle cx="182" cy="2" r="2"></circle>
                        <circle cx="194" cy="2" r="2"></circle>
                        <circle cx="206" cy="2" r="2"></circle>
                        <circle cx="218" cy="2" r="2"></circle>
                        <circle cx="230" cy="2" r="2"></circle>
                        <circle cx="242" cy="2" r="2"></circle>
                        <circle cx="254" cy="2" r="2"></circle>
                        <circle cx="266" cy="2" r="2"></circle>
                        <circle cx="278" cy="2" r="2"></circle>
                        <circle cx="290" cy="2" r="2"></circle>
                        <circle cx="302" cy="2" r="2"></circle>
                    </g>
                </g>
                <g id="5" opacity="0.200000003" mask="url(#mask-2)" fill="#FFFFFF">
                    <g transform="translate(8.000000, 192.000000)" id="Oval">
                        <circle cx="2" cy="2" r="2"></circle>
                        <circle cx="14" cy="2" r="2"></circle>
                        <circle cx="26" cy="2" r="2"></circle>
                        <circle cx="38" cy="2" r="2"></circle>
                        <circle cx="50" cy="2" r="2"></circle>
                        <circle cx="62" cy="2" r="2"></circle>
                        <circle cx="74" cy="2" r="2"></circle>
                        <circle cx="86" cy="2" r="2"></circle>
                        <circle cx="98" cy="2" r="2"></circle>
                        <circle cx="110" cy="2" r="2"></circle>
                        <circle cx="122" cy="2" r="2"></circle>
                        <circle cx="134" cy="2" r="2"></circle>
                        <circle cx="146" cy="2" r="2"></circle>
                        <circle cx="158" cy="2" r="2"></circle>
                        <circle cx="170" cy="2" r="2"></circle>
                        <circle cx="182" cy="2" r="2"></circle>
                        <circle cx="194" cy="2" r="2"></circle>
                        <circle cx="206" cy="2" r="2"></circle>
                        <circle cx="218" cy="2" r="2"></circle>
                        <circle cx="230" cy="2" r="2"></circle>
                        <circle cx="242" cy="2" r="2"></circle>
                        <circle cx="254" cy="2" r="2"></circle>
                        <circle cx="266" cy="2" r="2"></circle>
                        <circle cx="278" cy="2" r="2"></circle>
                        <circle cx="290" cy="2" r="2"></circle>
                        <circle cx="302" cy="2" r="2"></circle>
                    </g>
                </g>
                <g id="5" opacity="0.200000003" mask="url(#mask-2)" fill="#FFFFFF">
                    <g transform="translate(8.000000, 204.000000)" id="Oval">
                        <circle cx="2" cy="2" r="2"></circle>
                        <circle cx="14" cy="2" r="2"></circle>
                        <circle cx="26" cy="2" r="2"></circle>
                        <circle cx="38" cy="2" r="2"></circle>
                        <circle cx="50" cy="2" r="2"></circle>
                        <circle cx="62" cy="2" r="2"></circle>
                        <circle cx="74" cy="2" r="2"></circle>
                        <circle cx="86" cy="2" r="2"></circle>
                        <circle cx="98" cy="2" r="2"></circle>
                        <circle cx="110" cy="2" r="2"></circle>
                        <circle cx="122" cy="2" r="2"></circle>
                        <circle cx="134" cy="2" r="2"></circle>
                        <circle cx="146" cy="2" r="2"></circle>
                        <circle cx="158" cy="2" r="2"></circle>
                        <circle cx="170" cy="2" r="2"></circle>
                        <circle cx="182" cy="2" r="2"></circle>
                        <circle cx="194" cy="2" r="2"></circle>
                        <circle cx="206" cy="2" r="2"></circle>
                        <circle cx="218" cy="2" r="2"></circle>
                        <circle cx="230" cy="2" r="2"></circle>
                        <circle cx="242" cy="2" r="2"></circle>
                        <circle cx="254" cy="2" r="2"></circle>
                        <circle cx="266" cy="2" r="2"></circle>
                        <circle cx="278" cy="2" r="2"></circle>
                        <circle cx="290" cy="2" r="2"></circle>
                        <circle cx="302" cy="2" r="2"></circle>
                    </g>
                </g>
                <g id="6" opacity="0.200000003" mask="url(#mask-2)" fill="#FFFFFF">
                    <g transform="translate(8.500000, 216.000000)" id="Oval">
                        <circle cx="1.5" cy="1.5" r="1.5"></circle>
                        <circle cx="13.5" cy="1.5" r="1.5"></circle>
                        <circle cx="25.5" cy="1.5" r="1.5"></circle>
                        <circle cx="37.5" cy="1.5" r="1.5"></circle>
                        <circle cx="49.5" cy="1.5" r="1.5"></circle>
                        <circle cx="61.5" cy="1.5" r="1.5"></circle>
                        <circle cx="73.5" cy="1.5" r="1.5"></circle>
                        <circle cx="85.5" cy="1.5" r="1.5"></circle>
                        <circle cx="97.5" cy="1.5" r="1.5"></circle>
                        <circle cx="109.5" cy="1.5" r="1.5"></circle>
                        <circle cx="121.5" cy="1.5" r="1.5"></circle>
                        <circle cx="133.5" cy="1.5" r="1.5"></circle>
                        <circle cx="145.5" cy="1.5" r="1.5"></circle>
                        <circle cx="157.5" cy="1.5" r="1.5"></circle>
                        <circle cx="169.5" cy="1.5" r="1.5"></circle>
                        <circle cx="181.5" cy="1.5" r="1.5"></circle>
                        <circle cx="193.5" cy="1.5" r="1.5"></circle>
                        <circle cx="205.5" cy="1.5" r="1.5"></circle>
                        <circle cx="217.5" cy="1.5" r="1.5"></circle>
                        <circle cx="229.5" cy="1.5" r="1.5"></circle>
                        <circle cx="241.5" cy="1.5" r="1.5"></circle>
                        <circle cx="253.5" cy="1.5" r="1.5"></circle>
                        <circle cx="265.5" cy="1.5" r="1.5"></circle>
                        <circle cx="277.5" cy="1.5" r="1.5"></circle>
                        <circle cx="289.5" cy="1.5" r="1.5"></circle>
                        <circle cx="301.5" cy="1.5" r="1.5"></circle>
                    </g>
                </g>
                <g id="6" opacity="0.200000003" mask="url(#mask-2)" fill="#FFFFFF">
                    <g transform="translate(8.500000, 227.000000)" id="Oval">
                        <circle cx="1.5" cy="1.5" r="1.5"></circle>
                        <circle cx="13.5" cy="1.5" r="1.5"></circle>
                        <circle cx="25.5" cy="1.5" r="1.5"></circle>
                        <circle cx="37.5" cy="1.5" r="1.5"></circle>
                        <circle cx="49.5" cy="1.5" r="1.5"></circle>
                        <circle cx="61.5" cy="1.5" r="1.5"></circle>
                        <circle cx="73.5" cy="1.5" r="1.5"></circle>
                        <circle cx="85.5" cy="1.5" r="1.5"></circle>
                        <circle cx="97.5" cy="1.5" r="1.5"></circle>
                        <circle cx="109.5" cy="1.5" r="1.5"></circle>
                        <circle cx="121.5" cy="1.5" r="1.5"></circle>
                        <circle cx="133.5" cy="1.5" r="1.5"></circle>
                        <circle cx="145.5" cy="1.5" r="1.5"></circle>
                        <circle cx="157.5" cy="1.5" r="1.5"></circle>
                        <circle cx="169.5" cy="1.5" r="1.5"></circle>
                        <circle cx="181.5" cy="1.5" r="1.5"></circle>
                        <circle cx="193.5" cy="1.5" r="1.5"></circle>
                        <circle cx="205.5" cy="1.5" r="1.5"></circle>
                        <circle cx="217.5" cy="1.5" r="1.5"></circle>
                        <circle cx="229.5" cy="1.5" r="1.5"></circle>
                        <circle cx="241.5" cy="1.5" r="1.5"></circle>
                        <circle cx="253.5" cy="1.5" r="1.5"></circle>
                        <circle cx="265.5" cy="1.5" r="1.5"></circle>
                        <circle cx="277.5" cy="1.5" r="1.5"></circle>
                        <circle cx="289.5" cy="1.5" r="1.5"></circle>
                        <circle cx="301.5" cy="1.5" r="1.5"></circle>
                    </g>
                </g>
                <g id="6" opacity="0.200000003" mask="url(#mask-2)" fill="#FFFFFF">
                    <g transform="translate(8.500000, 238.000000)" id="Oval">
                        <circle cx="1.5" cy="1.5" r="1.5"></circle>
                        <circle cx="13.5" cy="1.5" r="1.5"></circle>
                        <circle cx="25.5" cy="1.5" r="1.5"></circle>
                        <circle cx="37.5" cy="1.5" r="1.5"></circle>
                        <circle cx="49.5" cy="1.5" r="1.5"></circle>
                        <circle cx="61.5" cy="1.5" r="1.5"></circle>
                        <circle cx="73.5" cy="1.5" r="1.5"></circle>
                        <circle cx="85.5" cy="1.5" r="1.5"></circle>
                        <circle cx="97.5" cy="1.5" r="1.5"></circle>
                        <circle cx="109.5" cy="1.5" r="1.5"></circle>
                        <circle cx="121.5" cy="1.5" r="1.5"></circle>
                        <circle cx="133.5" cy="1.5" r="1.5"></circle>
                        <circle cx="145.5" cy="1.5" r="1.5"></circle>
                        <circle cx="157.5" cy="1.5" r="1.5"></circle>
                        <circle cx="169.5" cy="1.5" r="1.5"></circle>
                        <circle cx="181.5" cy="1.5" r="1.5"></circle>
                        <circle cx="193.5" cy="1.5" r="1.5"></circle>
                        <circle cx="205.5" cy="1.5" r="1.5"></circle>
                        <circle cx="217.5" cy="1.5" r="1.5"></circle>
                        <circle cx="229.5" cy="1.5" r="1.5"></circle>
                        <circle cx="241.5" cy="1.5" r="1.5"></circle>
                        <circle cx="253.5" cy="1.5" r="1.5"></circle>
                        <circle cx="265.5" cy="1.5" r="1.5"></circle>
                        <circle cx="277.5" cy="1.5" r="1.5"></circle>
                        <circle cx="289.5" cy="1.5" r="1.5"></circle>
                        <circle cx="301.5" cy="1.5" r="1.5"></circle>
                    </g>
                </g>
                <g id="7" opacity="0.200000003" mask="url(#mask-2)" fill="#FFFFFF">
                    <g transform="translate(9.000000, 249.000000)" id="Oval">
                        <circle cx="1" cy="1" r="1"></circle>
                        <circle cx="13" cy="1" r="1"></circle>
                        <circle cx="25" cy="1" r="1"></circle>
                        <circle cx="37" cy="1" r="1"></circle>
                        <circle cx="49" cy="1" r="1"></circle>
                        <circle cx="61" cy="1" r="1"></circle>
                        <circle cx="73" cy="1" r="1"></circle>
                        <circle cx="85" cy="1" r="1"></circle>
                        <circle cx="97" cy="1" r="1"></circle>
                        <circle cx="109" cy="1" r="1"></circle>
                        <circle cx="121" cy="1" r="1"></circle>
                        <circle cx="133" cy="1" r="1"></circle>
                        <circle cx="145" cy="1" r="1"></circle>
                        <circle cx="157" cy="1" r="1"></circle>
                        <circle cx="169" cy="1" r="1"></circle>
                        <circle cx="181" cy="1" r="1"></circle>
                        <circle cx="193" cy="1" r="1"></circle>
                        <circle cx="205" cy="1" r="1"></circle>
                        <circle cx="217" cy="1" r="1"></circle>
                        <circle cx="229" cy="1" r="1"></circle>
                        <circle cx="241" cy="1" r="1"></circle>
                        <circle cx="253" cy="1" r="1"></circle>
                        <circle cx="265" cy="1" r="1"></circle>
                        <circle cx="277" cy="1" r="1"></circle>
                        <circle cx="289" cy="1" r="1"></circle>
                        <circle cx="301" cy="1" r="1"></circle>
                    </g>
                </g>
                <g id="7" opacity="0.200000003" mask="url(#mask-2)" fill="#FFFFFF">
                    <g transform="translate(9.000000, 259.000000)" id="Oval">
                        <circle cx="1" cy="1" r="1"></circle>
                        <circle cx="13" cy="1" r="1"></circle>
                        <circle cx="25" cy="1" r="1"></circle>
                        <circle cx="37" cy="1" r="1"></circle>
                        <circle cx="49" cy="1" r="1"></circle>
                        <circle cx="61" cy="1" r="1"></circle>
                        <circle cx="73" cy="1" r="1"></circle>
                        <circle cx="85" cy="1" r="1"></circle>
                        <circle cx="97" cy="1" r="1"></circle>
                        <circle cx="109" cy="1" r="1"></circle>
                        <circle cx="121" cy="1" r="1"></circle>
                        <circle cx="133" cy="1" r="1"></circle>
                        <circle cx="145" cy="1" r="1"></circle>
                        <circle cx="157" cy="1" r="1"></circle>
                        <circle cx="169" cy="1" r="1"></circle>
                        <circle cx="181" cy="1" r="1"></circle>
                        <circle cx="193" cy="1" r="1"></circle>
                        <circle cx="205" cy="1" r="1"></circle>
                        <circle cx="217" cy="1" r="1"></circle>
                        <circle cx="229" cy="1" r="1"></circle>
                        <circle cx="241" cy="1" r="1"></circle>
                        <circle cx="253" cy="1" r="1"></circle>
                        <circle cx="265" cy="1" r="1"></circle>
                        <circle cx="277" cy="1" r="1"></circle>
                        <circle cx="289" cy="1" r="1"></circle>
                        <circle cx="301" cy="1" r="1"></circle>
                    </g>
                </g>
                <g id="7" opacity="0.200000003" mask="url(#mask-2)" fill="#FFFFFF">
                    <g transform="translate(9.000000, 269.000000)" id="Oval">
                        <circle cx="1" cy="1" r="1"></circle>
                        <circle cx="13" cy="1" r="1"></circle>
                        <circle cx="25" cy="1" r="1"></circle>
                        <circle cx="37" cy="1" r="1"></circle>
                        <circle cx="49" cy="1" r="1"></circle>
                        <circle cx="61" cy="1" r="1"></circle>
                        <circle cx="73" cy="1" r="1"></circle>
                        <circle cx="85" cy="1" r="1"></circle>
                        <circle cx="97" cy="1" r="1"></circle>
                        <circle cx="109" cy="1" r="1"></circle>
                        <circle cx="121" cy="1" r="1"></circle>
                        <circle cx="133" cy="1" r="1"></circle>
                        <circle cx="145" cy="1" r="1"></circle>
                        <circle cx="157" cy="1" r="1"></circle>
                        <circle cx="169" cy="1" r="1"></circle>
                        <circle cx="181" cy="1" r="1"></circle>
                        <circle cx="193" cy="1" r="1"></circle>
                        <circle cx="205" cy="1" r="1"></circle>
                        <circle cx="217" cy="1" r="1"></circle>
                        <circle cx="229" cy="1" r="1"></circle>
                        <circle cx="241" cy="1" r="1"></circle>
                        <circle cx="253" cy="1" r="1"></circle>
                        <circle cx="265" cy="1" r="1"></circle>
                        <circle cx="277" cy="1" r="1"></circle>
                        <circle cx="289" cy="1" r="1"></circle>
                        <circle cx="301" cy="1" r="1"></circle>
                    </g>
                </g>
                <path d="M16,0 L304,0 C312.836556,-1.623249e-15 320,7.163444 320,16 L320,320 L320,320 L0,320 L0,16 C-1.082166e-15,7.163444 7.163444,1.623249e-15 16,0 Z" id="Mask" fill="url(#linearGradient-3)" mask="url(#mask-2)"></path>
            </g>
        </g>
    </g>
</svg>