<?xml version="1.0" encoding="UTF-8"?>
<svg width="20px" height="20px" viewBox="0 0 20 20" version="1.1" xmlns="http://www.w3.org/2000/svg" xmlns:xlink="http://www.w3.org/1999/xlink">
    <title>reddit@2x</title>
    <g id="适配" stroke="none" stroke-width="1" fill="none" fill-rule="evenodd">
        <g id="Markets-已连接钱包(2560*1440)" transform="translate(-2308.000000, -1306.000000)" fill-rule="nonzero">
            <g id="Group-5" transform="translate(0.000000, 1302.000000)">
                <g id="Group-33" transform="translate(2256.000000, 4.000000)">
                    <g id="reddit" transform="translate(52.000000, 0.000000)">
                        <rect id="Rectangle" fill="#000000" opacity="0" x="0" y="0" width="20" height="20"></rect>
                        <g id="download-(1)" transform="translate(1.428573, 2.142855)" fill="#FFFFFF">
                            <path d="M15.9857127,0.0949190985 L0.800461601,5.97464842 C-0.235869226,6.39257323 -0.229869226,6.97308451 0.61032927,7.23194165 L4.50899393,8.45314466 L13.529412,2.7385191 C13.9559082,2.47793865 14.3455924,2.61812211 14.0252917,2.90363188 L6.717021,9.52637775 L6.71530671,9.52637775 L6.717021,9.52728 L6.44805859,13.5622574 C6.84207363,13.5622574 7.01584807,13.3808138 7.2369007,13.1667086 L9.13055483,11.3177161 L13.0694421,14.2391296 C13.7957578,14.6407236 14.3173518,14.4342875 14.4980736,13.5639717 L17.0837578,1.32814015 C17.3483894,0.262621354 16.6786451,-0.219832781 15.9857127,0.0949190985 Z" id="Path"></path>
                        </g>
                    </g>
                </g>
            </g>
        </g>
    </g>
</svg>