<?xml version="1.0" encoding="UTF-8"?>
<svg width="20px" height="20px" viewBox="0 0 20 20" version="1.1" xmlns="http://www.w3.org/2000/svg" xmlns:xlink="http://www.w3.org/1999/xlink">
    <title>推特1@2x</title>
    <g id="适配" stroke="none" stroke-width="1" fill="none" fill-rule="evenodd">
        <g id="Markets-已连接钱包(2560*1440)" transform="translate(-2256.000000, -1306.000000)" fill-rule="nonzero">
            <g id="Group-5" transform="translate(0.000000, 1302.000000)">
                <g id="推特1" transform="translate(2256.000000, 4.000000)">
                    <rect id="Rectangle" fill="#000000" opacity="0" x="0" y="0" width="20" height="20"></rect>
                    <path d="M16.8253783,6.76933383 C16.8253783,6.60855031 16.8222945,6.44958082 16.8151895,6.29169976 C17.5024952,5.77956889 18.0988273,5.13849072 18.5704751,4.40489703 C17.9299631,4.69310222 17.2483927,4.87957112 16.5503714,4.95757148 C17.2768601,4.51050381 17.8340092,3.79550393 18.0972854,2.93746778 C17.4170544,3.35000842 16.664625,3.64493943 15.8646076,3.798618 C15.2235899,3.06922681 14.3088351,2.60465376 13.2975739,2.58739025 C11.355413,2.55528192 9.7810165,4.19652546 9.78101648,6.25272835 C9.78101648,6.5449988 9.81158289,6.82844097 9.8722622,7.10214785 C6.94762273,6.91394225 4.35600892,5.39160835 2.62243125,3.09667914 C2.31994176,3.6465116 2.14639958,4.28910146 2.14639958,4.97773743 C2.14639958,6.28021089 2.76725132,7.43783407 3.71057709,8.12093726 C3.13308067,8.09481523 2.59210672,7.91991252 2.11761697,7.63314462 L2.11761697,7.68097456 C2.11761697,9.50135356 3.33017502,11.0265597 4.93909861,11.3824118 C4.64413735,11.4663107 4.33303122,11.5099684 4.01306658,11.5083962 C3.79075765,11.5072476 3.56917102,11.4829804 3.35188291,11.4359862 C3.79895057,12.9277537 5.09827972,14.0176228 6.63654684,14.0539337 C5.43263566,15.0521641 3.91607645,15.6484357 2.26954198,15.6442634 C1.9856463,15.6442634 1.70510658,15.6252161 1.43006941,15.5906891 C2.98696056,16.6586387 4.83503375,17.2806397 6.82169882,17.2806397 C13.2887154,17.2821813 16.8253783,11.6532163 16.8253783,6.76933383 L16.8253783,6.76933383 Z" id="Path" fill="#FFFFFF"></path>
                </g>
            </g>
        </g>
    </g>
</svg>