<?xml version="1.0" encoding="UTF-8"?>
<svg width="20px" height="20px" viewBox="0 0 20 20" version="1.1" xmlns="http://www.w3.org/2000/svg" xmlns:xlink="http://www.w3.org/1999/xlink">
    <title>reddit@2x</title>
    <g id="适配" stroke="none" stroke-width="1" fill="none" fill-rule="evenodd">
        <g id="Markets-已连接钱包(2560*1440)" transform="translate(-2360.000000, -1306.000000)" fill-rule="nonzero">
            <g id="Group-5" transform="translate(0.000000, 1302.000000)">
                <g id="Group-33" transform="translate(2256.000000, 4.000000)">
                    <g id="reddit" transform="translate(104.000000, 0.000000)">
                        <rect id="Rectangle" fill="#000000" opacity="0" x="0" y="0" width="20" height="20"></rect>
                        <g id="discord.4ff7d5a" transform="translate(0.714283, 3.571429)" fill="#FFFFFF">
                            <path d="M15.7317567,1.12333413 C14.5137805,0.591665079 13.2253361,0.21389127 11.9003678,0 C11.7352885,0.278385714 11.5424551,0.652806349 11.4095662,0.950681746 C9.98101068,0.750265079 8.5655583,0.750265079 7.16327099,0.950681746 C7.03037179,0.652868254 6.8331948,0.278385714 6.66662972,0 C5.34036147,0.213994444 4.05079242,0.592727778 2.83227972,1.12610952 C0.40755274,4.5447381 -0.249772657,7.87830952 0.0788487718,11.1647302 C1.68709322,12.2852063 3.24564877,12.9659524 4.77793607,13.4113571 C5.15874322,12.9227222 5.49537099,12.4055079 5.78434242,11.864873 C5.23418449,11.6694603 4.70381544,11.4286508 4.19952893,11.1452302 C4.33224242,11.0535079 4.46181941,10.9578651 4.58808449,10.8585079 C7.64379639,12.1919365 10.9640583,12.1919365 13.9833599,10.8585079 C14.1101615,10.9571429 14.2396456,11.0527857 14.3718123,11.1452302 C13.8667726,11.429373 13.3353202,11.6706984 12.7840583,11.8663175 C13.0747012,12.409119 13.4107408,12.9268492 13.7905265,13.4126984 C15.324217,12.9672937 16.884217,12.2866508 18.4925027,11.1647302 C18.8781694,7.35500794 17.8338361,4.05191429 15.7317567,1.12327222 L15.7317567,1.12333413 Z M6.20067258,9.14364286 C5.28334718,9.14364286 4.53105988,8.34465873 4.53105988,7.37172222 C4.53105988,6.39878571 5.26731385,5.59846032 6.20067258,5.59846032 C7.13410353,5.59846032 7.88635988,6.39734127 7.87026464,7.37172222 C7.87170909,8.34465873 7.13410353,9.14364286 6.20067258,9.14364286 Z M12.3706377,9.14364286 C11.4533123,9.14364286 10.7011694,8.34465873 10.7011694,7.37172222 C10.7011694,6.39878571 11.4373202,5.59846032 12.3706377,5.59846032 C13.3040583,5.59846032 14.0563043,6.39734127 14.0403123,7.37172222 C14.0403123,8.34465873 13.3040583,9.14364286 12.3706377,9.14364286 Z" id="Shape"></path>
                        </g>
                    </g>
                </g>
            </g>
        </g>
    </g>
</svg>