<?xml version="1.0" encoding="UTF-8"?>
<svg width="20px" height="20px" viewBox="0 0 20 20" version="1.1" xmlns="http://www.w3.org/2000/svg" xmlns:xlink="http://www.w3.org/1999/xlink">
    <title>邮箱@2x</title>
    <g id="适配" stroke="none" stroke-width="1" fill="none" fill-rule="evenodd">
        <g id="Markets-已连接钱包(2560*1440)" transform="translate(-2516.000000, -1306.000000)" fill-rule="nonzero">
            <g id="Group-5" transform="translate(0.000000, 1302.000000)">
                <g id="Group-33" transform="translate(2256.000000, 4.000000)">
                    <g id="邮箱" transform="translate(260.000000, 0.000000)">
                        <rect id="Rectangle" fill="#000000" opacity="0" x="0" y="0" width="20" height="20"></rect>
                        <path d="M18.7337468,5.24981758 L9.885067,10.1549578 L1.25696564,5.37021647 C1.34055327,4.1171761 2.42487064,3.125 3.75066339,3.125 L16.2493366,3.125 C17.5333355,3.125 18.5921122,4.05251743 18.7337468,5.24981758 L18.7337468,5.24981758 Z M18.75,7.00674964 L18.75,14.4737109 C18.75,15.8003284 17.6308545,16.875 16.2493366,16.875 L3.75066339,16.875 C2.36914555,16.875 1.25,15.8003284 1.25,14.4737109 L1.25,7.13383736 L9.49034762,11.7023066 C9.77361682,11.8583793 10.114933,11.8293944 10.3610521,11.6554848 C10.3726615,11.6510256 10.3819491,11.6443368 10.3935584,11.637648 L18.75,7.00674964 Z" id="Shape" fill="#FFFFFF"></path>
                    </g>
                </g>
            </g>
        </g>
    </g>
</svg>