<?xml version="1.0" encoding="UTF-8"?>
<svg width="20px" height="20px" viewBox="0 0 20 20" version="1.1" xmlns="http://www.w3.org/2000/svg" xmlns:xlink="http://www.w3.org/1999/xlink">
    <title>reddit@2x</title>
    <g id="适配" stroke="none" stroke-width="1" fill="none" fill-rule="evenodd">
        <g id="Markets-已连接钱包(2560*1440)" transform="translate(-2464.000000, -1306.000000)">
            <g id="Group-5" transform="translate(0.000000, 1302.000000)">
                <g id="Group-33" transform="translate(2256.000000, 4.000000)">
                    <g id="reddit" transform="translate(208.000000, 0.000000)">
                        <rect id="Rectangle" fill="#000000" fill-rule="nonzero" opacity="0" x="0" y="0" width="20" height="20"></rect>
                        <g id="github.cefe703" transform="translate(1.428571, 1.428571)" fill="#FFFFFF">
                            <path d="M8.5452,0 C3.82699714,0 0,3.93371143 0,8.78348571 C0,12.6633429 2.46396,15.9504 5.81913429,17.1359143 C6.23853429,17.1897429 6.39580286,16.9203429 6.39580286,16.7047714 C6.39580286,16.4892857 6.39580286,15.9504 6.39580286,15.1959429 C4.03669714,15.7348286 3.51245143,14.0105143 3.51245143,14.0105143 C3.14547429,12.9866571 2.56880571,12.7171714 2.56880571,12.7171714 C1.78243714,12.1783714 2.62122857,12.1783714 2.62122857,12.1783714 C3.46002857,12.2322 3.93185143,13.0944 3.93185143,13.0944 C4.71822,14.4415714 5.92398,14.0643429 6.39580286,13.8487714 C6.44823429,13.2560571 6.71035714,12.8788286 6.92005714,12.6633429 C5.03276571,12.4477714 3.04062857,11.6933143 3.04062857,8.29851429 C3.04062857,7.32857143 3.35517429,6.57414857 3.93185143,5.92751143 C3.87942,5.76584571 3.56487429,4.84978286 4.03669714,3.66427714 C4.03669714,3.66427714 4.77064286,3.44873143 6.39580286,4.58034857 C7.07734286,4.36480286 7.81122857,4.31091429 8.5452,4.31091429 C9.27917143,4.31091429 10.0131429,4.41869143 10.6946571,4.58034857 C12.3198,3.44873143 13.0537714,3.66427714 13.0537714,3.66427714 C13.5255429,4.84978286 13.2109714,5.76584571 13.1586,5.98139143 C13.6828286,6.57414857 14.0497714,7.3824 14.0497714,8.35242857 C14.0497714,11.7472286 12.0576857,12.4477714 10.1703429,12.6633429 C10.4849143,12.9327429 10.7470286,13.4716286 10.7470286,14.2799143 C10.7470286,15.4654286 10.7470286,16.3814571 10.7470286,16.7047714 C10.7470286,16.9203429 10.9043143,17.1897429 11.3237143,17.1359143 C14.7312857,15.9504 17.1428571,12.6633429 17.1428571,8.78348571 C17.0904,3.93371143 13.2634286,0 8.5452,0 Z" id="Path"></path>
                        </g>
                    </g>
                </g>
            </g>
        </g>
    </g>
</svg>