<?xml version="1.0" encoding="UTF-8"?>
<svg width="20px" height="20px" viewBox="0 0 20 20" version="1.1" xmlns="http://www.w3.org/2000/svg" xmlns:xlink="http://www.w3.org/1999/xlink">
    <title>Youtube-fill@2x</title>
    <g id="适配" stroke="none" stroke-width="1" fill="none" fill-rule="evenodd">
        <g id="Markets-已连接钱包(2560*1440)" transform="translate(-2412.000000, -1306.000000)" fill-rule="nonzero">
            <g id="Group-5" transform="translate(0.000000, 1302.000000)">
                <g id="Group-33" transform="translate(2256.000000, 4.000000)">
                    <g id="Youtube-fill" transform="translate(156.000000, 0.000000)">
                        <rect id="Rectangle" fill="#000000" opacity="0" x="0" y="0" width="20" height="20"></rect>
                        <path d="M18.8981186,5.57984531 C18.6846301,4.78958144 18.0545281,4.16719745 17.256537,3.95632393 C15.8077168,3.57142857 10,3.57142857 10,3.57142857 C10,3.57142857 4.19228316,3.57142857 2.74346301,3.95427662 C1.94339923,4.16515014 1.3153699,4.78753412 1.10188138,5.577798 C0.714285714,7.01091902 0.714285714,10 0.714285714,10 C0.714285714,10 0.714285714,12.989081 1.10188138,14.4201547 C1.3153699,15.2104186 1.94547194,15.8328025 2.74346301,16.0436761 C4.19228316,16.4285714 10,16.4285714 10,16.4285714 C10,16.4285714 15.8077168,16.4285714 17.256537,16.0436761 C18.0566008,15.8328025 18.6846301,15.2104186 18.8981186,14.4201547 C19.2857143,12.989081 19.2857143,10 19.2857143,10 C19.2857143,10 19.2857143,7.01091902 18.8981186,5.57984531 Z M8.15529337,12.7434031 L8.15529337,7.25659691 L12.9639668,9.97952684 L8.15529337,12.7434031 Z" id="Shape" fill="#FFFFFF"></path>
                    </g>
                </g>
            </g>
        </g>
    </g>
</svg>